<mxfile host="app.diagrams.net" modified="2024-06-18T07:38:39.409Z" agent="Mozilla/5.0 (Windows NT 10.0; Win64; x64) AppleWebKit/537.36 (KHTML, like Gecko) Chrome/125.0.0.0 Safari/537.36 Edg/125.0.0.0" version="24.5.5" etag="VFWD3D9DLwXa0KirDyzd" type="github">
  <diagram name="Page-1" id="m32Fnv55mtQtTgW1gott">
    <mxGraphModel>
      <root>
        <mxCell id="0" />
        <mxCell id="1" parent="0" />
      </root>
    </mxGraphModel>
  </diagram>
</mxfile>
